<!DOCTYPE svg PUBLIC "-//W3C//DTD SVG 1.1//EN" "http://www.w3.org/Graphics/SVG/1.1/DTD/svg11.dtd">
<!-- Uploaded to: SVG Repo, www.svgrepo.com, Transformed by: SVG Repo Mixer Tools -->
<svg fill="#FFF" version="1.1" id="Capa_1" xmlns="http://www.w3.org/2000/svg" xmlns:xlink="http://www.w3.org/1999/xlink" width="800px" height="800px" viewBox="-30.98 -30.98 155.84 155.84" xml:space="preserve" transform="matrix(-1, 0, 0, 1, 0, 0)" stroke="#000000" stroke-width="0.0009388">
<g id="SVGRepo_bgCarrier" stroke-width="0" transform="translate(0,0), scale(1)">
<rect x="-30.98" y="-30.98" width="155.84" height="155.84" rx="77.92" fill="#000000" strokewidth="0"/>
</g>
<g id="SVGRepo_tracerCarrier" stroke-linecap="round" stroke-linejoin="round" stroke="#CCCCCC" stroke-width="1.31432"/>
<g id="SVGRepo_iconCarrier"> <g> <g> <path d="M21.346,76.171l51.693,0.011l0.01-58.476l-51.693-0.012L21.346,76.171z M46.876,39.857c3.521,0,6.373,2.85,6.373,6.369 c0,3.521-2.854,6.375-6.373,6.375c-3.518,0-6.373-2.854-6.373-6.375C40.503,42.707,43.358,39.857,46.876,39.857z"/> <path d="M91.284,0H2.598C1.162,0,0,1.162,0,2.596v88.685c0,1.437,1.162,2.599,2.598,2.599h88.685c1.435,0,2.597-1.162,2.597-2.599 V2.595C93.879,1.162,92.717,0,91.284,0z M80.906,80.078c0,2.15-1.741,3.895-3.895,3.895H76.04l-59.172-0.014 c-2.15,0-3.895-1.744-3.895-3.896c0-0.074,0-0.363,0-0.438v-0.002c0,0,0-65.781,0-65.824c0-2.15,1.744-3.893,3.895-3.893h0.012 c0,0,60.088,0,60.131,0c1.615,0.002,3,0.984,3.591,2.387c0.196,0.467,0.307,0.982,0.307,1.521c0,0.018-0.004,0.033-0.004,0.051 C80.902,13.865,80.906,79.971,80.906,80.078z"/> </g> </g> </g>
</svg>